# xmcd
#
# Track frame offsets:
#	150
#	12805
#	25070
#	38100
#	49672
#	62045
#	72480
#	84347
#	95945
#	105845
#	115980
#	127590
#	138992
#	150640
#	162757
#	172590
#	184602
#	196710
#	210192
#	221387
#
# Disc length: 3101 seconds
#
# Revision: 0
# Processed by: cddbd v1.5.1PL0 Copyright (c) Steve Scherf et al.
# Submitted via: dBpowerAMP V4.0
#
DISCID=f10c1b14
DTITLE=Eddy Arnold - Ultimate
DYEAR=2003
DGENRE=Country
TTITLE0=What is life without love
TTITLE1=I'll hold you in my heart
TTITLE2=Anytime
TTITLE3=Bouquet of roses
TTITLE4=Just a little lovin'
TTITLE5=One kiss too many
TTITLE6=I'm throwing rice (at the girl I love)
TTITLE7=Kentucky waltz
TTITLE8=I wanna play house with you
TTITLE9=Somebody's bee beatin' my time
TTITLE10=I really don't want to know
TTITLE11=The cattle call
TTITLE12=Just call me lonesome
TTITLE13=Trouble in mind
TTITLE14=What's he doing in my world
TTITLE15=Make the world go away
TTITLE16=I want to go with you
TTITLE17=The tip of my fingers
TTITLE18=Somebody like me
TTITLE19=Turn the world around
EXTD=
EXTT0=
EXTT1=
EXTT2=
EXTT3=
EXTT4=
EXTT5=
EXTT6=
EXTT7=
EXTT8=
EXTT9=
EXTT10=
EXTT11=
EXTT12=
EXTT13=
EXTT14=
EXTT15=
EXTT16=
EXTT17=
EXTT18=
EXTT19=
PLAYORDER=
